<svg width="20" height="20" viewBox="0 0 20 20" fill="none" xmlns="http://www.w3.org/2000/svg">
<path d="M16 19.3333H19.3333V17.3333C19.3333 15.4923 17.8409 14 16 14M11.3333 4.66402C11.3333 6.87191 9.54263 8.66141 7.33329 8.66141C5.12396 8.66141 3.33329 6.87191 3.33329 4.66402C3.33329 2.45613 5.12396 0.666626 7.33329 0.666626C9.54263 0.666626 11.3333 2.45613 11.3333 4.66402ZM14 19.3211H0.666626C0.666626 18.3744 0.666626 17.4737 0.666626 16.6581C0.666626 14.449 2.45749 12.6588 4.66663 12.6588H9.99996C12.2091 12.6588 14 14.449 14 16.6581C14 17.4737 14 18.3744 14 19.3211ZM15.3333 11.3333C13.8605 11.3333 12.6666 10.1394 12.6666 8.66663C12.6666 7.19387 13.8605 5.99996 15.3333 5.99996C16.8061 5.99996 18 7.19387 18 8.66663C18 10.1394 16.8061 11.3333 15.3333 11.3333Z" stroke="white"/>
</svg>
